# xmcd CD database file
#
# Track frame offsets:
#	150
#	16391
#	31001
#	45485
#	59554
#	76363
#	90839
#	103606
#	121117
#	140330
#	156583
#
# Disc length: 2287 seconds
#
# Revision: 0
# Processed by: cddbd v1.5.2PL0 Copyright (c) Steve Scherf et al.
# Submitted via: CDex 1.51
#
DISCID=7f08ed0b
DTITLE=Grapefruit Moon - Silence
DYEAR=2014
DGENRE=Country
TTITLE0=HALF A GLASS O'WHISKEY
TTITLE1=I AIN'T AFRAID
TTITLE2=STONES
TTITLE3=NEW COAT OF PAINT
TTITLE4=SCREAMING HEART
TTITLE5=STOP POISONING MY HEART
TTITLE6=HEAVY NIGHTS
TTITLE7=GRAPEFRUIT MOON
TTITLE8=LIKE WATER
TTITLE9=RUNNING DEAD
TTITLE10=LOVE AFFAIR WITH A BARTENDER
EXTD=YEAR: 2014
EXTT0=
EXTT1=
EXTT2=
EXTT3=
EXTT4=
EXTT5=
EXTT6=
EXTT7=
EXTT8=
EXTT9=
EXTT10=
PLAYORDER=
